Coordinates
version=1
nRows=38
nColumns=12
inDegrees=yes

Units are S.I. units (second, meters, Newtons, ...)
Angles are in degrees

endheader
time	SC_y	SC_z	SC_x	AC_y	AC_z	AC_x	GH_y	GH_z	GH_yy	EL_x	PS_y
       0.0              -17.78          20.84          48.38           59.4          9.853          13.31          174.1          24.22          25.35          115.1          45.78
   0.02934              -17.79          20.84          48.38           59.4          9.852          13.31          174.1          24.22          25.36          115.1          45.78
   0.05868               -17.8          20.84          48.38           59.4          9.851          13.31          174.1          24.22          25.38          115.1          45.78
   0.08802               -17.8          20.84          48.38           59.4           9.85          13.31          174.0          24.22           25.4          115.1          45.78
    0.1174              -17.81          20.84          48.38          59.39          9.849           13.3          174.0          24.22          25.42          115.1          45.78
    0.1467              -17.82          20.84          48.38          59.39          9.848           13.3          174.0          24.22          25.44          115.2          45.78
     0.176              -17.82          20.84          48.37          59.39          9.847           13.3          173.9          24.22          25.46          115.2          45.78
    0.2054              -17.83          20.85          48.37          59.39          9.846           13.3          173.9          24.22          25.49          115.2          45.78
    0.2347              -17.84          20.85          48.37          59.39          9.845          13.29          173.9          24.23          25.52          115.2          45.78
    0.2641              -17.85          20.85          48.37          59.38          9.843          13.29          173.8          24.23          25.54          115.2          45.77
    0.2934              -17.86          20.85          48.37          59.38          9.842          13.29          173.8          24.23          25.57          115.2          45.77
    0.3227              -17.87          20.85          48.36          59.38           9.84          13.28          173.8          24.23          25.61          115.2          45.77
    0.3521              -17.89          20.85          48.36          59.38          9.838          13.28          173.7          24.23          25.64          115.2          45.77
    0.3814               -17.9          20.86          48.36          59.37          9.837          13.27          173.7          24.23          25.68          115.2          45.77
    0.4108              -17.91          20.86          48.36          59.37          9.834          13.27          173.6          24.23          25.72          115.2          45.76
    0.4401              -17.93          20.86          48.35          59.37          9.832          13.27          173.5          24.23          25.76          115.2          45.76
    0.4694              -17.95          20.87          48.35          59.36           9.83          13.26          173.5          24.23          25.81          115.2          45.76
    0.4988              -17.97          20.87          48.35          59.36          9.827          13.25          173.4          24.23          25.87          115.2          45.76
    0.5281              -17.99          20.87          48.34          59.35          9.824          13.25          173.3          24.23          25.92          115.2          45.75
    0.5575              -18.01          20.88          48.34          59.35          9.821          13.24          173.2          24.24          25.99          115.2          45.75
    0.5868              -18.03          20.88          48.33          59.34          9.818          13.23          173.1          24.24          26.05          115.3          45.75
    0.6161              -18.06          20.89          48.33          59.33          9.814          13.23          173.0          24.24          26.13          115.3          45.74
    0.6455              -18.09          20.89          48.32          59.33           9.81          13.22          172.9          24.24          26.21          115.3          45.74
    0.6748              -18.12           20.9          48.31          59.32          9.805          13.21          172.8          24.24          26.31          115.3          45.74
    0.7042              -18.16           20.9          48.31          59.31            9.8          13.19          172.7          24.25          26.41          115.3          45.73
    0.7335               -18.2          20.91           48.3           59.3          9.794          13.18          172.5          24.25          26.53          115.3          45.73
    0.7628              -18.24          20.92          48.29          59.29          9.788          13.17          172.3          24.25          26.66          115.3          45.72
    0.7922               -18.3          20.93          48.28          59.28           9.78          13.15          172.1          24.26           26.8          115.4          45.71
    0.8215              -18.35          20.94          48.27          59.26          9.772          13.13          171.9          24.26          26.97          115.4           45.7
    0.8509              -18.42          20.95          48.26          59.25          9.763          13.11          171.7          24.26          27.15          115.4          45.69
    0.8802              -18.49          20.96          48.24          59.23          9.752          13.09          171.4          24.27          27.36          115.5          45.68
    0.9095              -18.58          20.98          48.22          59.21           9.74          13.06          171.1          24.28          27.61          115.5          45.67
    0.9389              -18.68          20.99           48.2          59.19          9.726          13.03          170.7          24.28          27.89          115.6          45.66
    0.9682               -18.8          21.01          48.18          59.16          9.709           13.0          170.2          24.29          28.22          115.6          45.64
    0.9976              -18.93          21.04          48.15          59.13           9.69          12.96          169.7           24.3           28.6          115.7          45.62
     1.027              -19.09          21.07          48.12          59.09          9.667          12.91          169.1          24.31          29.05          115.7           45.6
     1.056              -19.28           21.1          48.08          59.04           9.64          12.85          168.4          24.32          29.59          115.8          45.57
     1.086              -19.51          21.14          48.04          58.99          9.608          12.78          167.5          24.34          30.24          115.9          45.54
